# xmcd
#
# Track frame offsets:
#	150
#	16026
#	28226
#	51406
#	62764
#	77284
#	92063
#	111777
#	126961
#	139056
#	150586
#	164603
#	178886
#	191384
#	209037
#	222470
#	238994
#	253853
#	265666
#	280470
#
# Disc length: 3921 seconds
#
# Revision: 1
# Processed by: cddbd v1.5.2PL0 Copyright (c) Steve Scherf et al.
# Submitted via: audiograbber 1.83.01
#
DISCID=2e0f4f14
DTITLE=Ed Bruce - The Tennessean  And Cowboys And Dreamers
DYEAR=2009
DGENRE=Country
TTITLE0=Man Made Of Glass
TTITLE1=Star Studded Nights
TTITLE2=NEver Take Candy From A Stranger
TTITLE3=Am I Gonna Have To Burn Atlanta Down
TTITLE4=When I Die Just Let Me Go To Texas
TTITLE5=Love Somebody To Death
TTITLE6=I Can't Seem To Get The Hang Of Telling Her Goodbye
TTITLE7=Wedding Dress
TTITLE8=I've Not Forgot Marie
TTITLE9=Ain't No Good Chain Gang
TTITLE10=Angeline
TTITLE11=I Really Didn't Have A Thing To Do Today
TTITLE12=The Greatest Love Song
TTITLE13=Kentucky Boy, California Man
TTITLE14=The Family
TTITLE15=Old Wore Out Cowboy
TTITLE16=The Man That Turned My Mama On
TTITLE17=He Brings Your Memory Back Again
TTITLE18=Miracle Express
TTITLE19=Give My Old Memory A Call
EXTD=
EXTT0=
EXTT1=
EXTT2=
EXTT3=
EXTT4=
EXTT5=
EXTT6=
EXTT7=
EXTT8=
EXTT9=
EXTT10=
EXTT11=
EXTT12=
EXTT13=
EXTT14=
EXTT15=
EXTT16=
EXTT17=
EXTT18=
EXTT19=
PLAYORDER=
